<?xml version="1.0" encoding="UTF-8"?>
<svg width="396px" height="108px" viewBox="0 0 396 108" version="1.1" xmlns="http://www.w3.org/2000/svg" xmlns:xlink="http://www.w3.org/1999/xlink">
    <title>Group</title>
    <g id="Page-1" stroke="none" stroke-width="1" fill="none" fill-rule="evenodd">
        <g id="Group" transform="translate(0.577177, 0.622108)" fill="#FFFFFF" fill-rule="nonzero">
            <path d="M154.588427,85.7235556 C154.588427,97.9694873 144.712676,107.186855 132.598421,107.186855 C120.418328,107.186855 110.608415,97.9694873 110.608415,85.7235556 C110.608415,73.9384924 120.615843,64.2602561 132.598421,64.2602561 C144.646838,64.2602561 154.588427,73.9384924 154.588427,85.7235556 M149.387198,85.7235556 C149.387198,76.6378644 142.474172,69.0664551 132.598421,69.0664551 C122.72267,69.0664551 115.809644,76.6378644 115.809644,85.7235556 C115.809644,95.1384386 123.51273,102.380656 132.598421,102.380656 C141.684112,102.380656 149.387198,95.1384386 149.387198,85.7235556" id="XMLID_2_"></path>
            <path d="M393.252417,37.8590809 C392.857387,36.7398291 392.791549,35.4889006 392.725711,34.3038105 C392.528196,28.641713 391.474782,23.1771306 389.236279,17.9100633 C387.656158,15.6715596 386.207715,13.3672177 384.364241,11.3262291 C377.780407,3.82065805 369.023908,0.726255971 359.345671,0.0678725497 C355.922078,-0.195480819 352.432645,0.39706426 349.009052,0.331225918 C343.281116,0.265387576 337.684857,0.857932655 332.286113,2.83308292 C318.591738,7.83679692 309.901076,17.3833565 306.543321,31.6044384 C305.819099,34.7646788 305.226554,37.9907576 303.909787,41.0193213 C302.98805,43.06031 302.59302,45.4963286 302.527182,47.8006706 C302.395505,57.2813919 305.621584,65.6428613 312.337095,72.4242105 C314.180569,74.2676841 316.089881,75.9136427 318.130869,77.2962479 C325.175572,84.8018189 337.882372,91.1222997 352.959352,91.1222997 C356.777976,91.1222997 360.728276,90.7272697 364.810254,89.8055329 C365.797829,89.6080178 366.390374,88.6204427 366.192859,87.6328676 C365.995344,86.6452924 365.007769,86.0527474 364.020194,86.2502624 C353.222705,88.686281 343.149439,87.3036759 334.985485,84.0775971 C339.594169,84.8676572 344.466206,84.9993339 349.46992,84.6043038 C351.181717,84.4726271 352.959352,84.4726271 354.736987,84.6043038 C363.098457,85.4602023 371.064896,84.3409505 378.307114,79.8639432 C392.067327,71.2391204 398.32197,53.3969297 393.252417,37.8590809 M384.561756,31.14357 C386.273553,32.1311452 388.643734,36.3447991 388.512057,38.1224343 C387.853673,45.1012986 385.746846,51.5534561 381.730708,57.4130685 C384.627595,48.8540841 385.944362,40.1634229 384.561756,31.14357 M387.787835,27.7199762 C385.549331,25.2839576 382.652444,23.7038374 381.204001,20.2802436 C378.965497,14.9473379 375.146873,10.6678456 370.340674,7.31009018 C369.879806,6.98089847 369.484776,6.7175451 369.023908,6.38835339 C379.558042,9.74610884 385.746846,16.9883265 387.787835,27.7199762 M348.28483,5.00574821 C349.799112,4.41320313 351.774262,4.6765565 353.486059,4.93990987 C362.57175,6.45419174 370.077321,10.6020073 375.871095,18.7001234 C359.740701,10.931199 344.137014,11.7212591 328.665004,18.8976384 C328.533327,18.7001234 328.335812,18.5026083 328.204135,18.3050933 C331.101023,15.737398 333.800395,12.8405109 336.960635,10.733684 C340.450067,8.429342 344.400368,6.65170676 348.28483,5.00574821 M336.631443,5.99332334 C331.825244,9.02188708 327.348237,12.4454809 324.517188,17.1858415 C321.488625,22.1237172 317.209132,25.4156343 312.797963,28.7733897 C312.402933,29.0367431 312.073742,29.3659348 311.678712,29.6951265 C311.612873,29.6951265 311.547035,29.6951265 311.481197,29.6951265 C312.468772,20.2802436 327.479914,6.05916168 336.631443,5.99332334 M311.152005,36.4106374 C313.192993,34.3038105 315.233982,32.1311452 317.670001,29.6292882 C315.431497,44.6404302 319.908504,57.2813919 328.401651,69.2639701 C324.45135,66.7621131 321.422786,63.9969027 318.855091,60.7049856 C314.11473,54.7136965 310.756975,48.1298623 309.966915,40.4267763 C309.7694,38.9124944 310.032753,37.5957276 311.152005,36.4106374 M319.447636,73.1484323 C319.381798,73.082594 319.381798,73.082594 319.315959,73.0167556 C311.217843,66.9596281 306.214129,57.8080986 306.740836,47.8006706 C308.189279,50.6975576 309.703561,54.1211514 311.612873,57.3472302 C316.221557,65.3795079 322.542038,71.6999888 331.166861,75.2552593 C334.78797,76.7695411 338.540755,77.8887929 341.635157,80.3906499 C333.207849,80.3906499 325.438925,77.6254396 319.447636,73.1484323 M340.384229,73.6093007 C339.001624,73.4117857 337.55318,72.7534023 336.499767,71.8316655 C332.812819,68.6055867 329.850094,64.7869629 327.414075,60.5074706 C323.529613,53.660283 321.159433,46.4180654 320.830241,38.5174643 C320.632726,34.5013255 321.356948,30.6827016 323.134583,27.0615928 C323.397936,26.5348861 323.858805,26.0740177 324.319673,25.8106643 C326.03147,24.8889275 327.809105,24.0330291 329.520902,23.1771306 C337.15815,19.2926684 345.322104,17.1858415 353.946927,17.3833565 C362.57175,17.5808716 370.538189,20.0168902 377.64873,24.8889275 C378.636306,25.6131493 379.426366,27.0615928 379.689719,28.3125213 C382.191576,38.3857877 380.743132,48.1298623 377.056185,57.6764219 C376.726994,58.466482 376.331964,59.2565421 376.06861,60.0466022 C374.48849,64.5894478 370.999058,67.1571432 366.851242,69.1981318 C358.555611,73.1484323 349.733273,74.8602292 340.384229,73.6093007 M347.428931,78.4154997 C352.366807,77.5596012 357.370521,76.6378644 362.045043,75.781966 C358.884803,78.086308 352.23513,81.5757401 347.428931,78.4154997 M362.703427,80.4564883 C369.023908,76.5061878 374.751843,72.3583722 379.623881,67.0254665 C384.495918,61.6925608 388.248703,55.6354333 390.684722,48.3932157 C391.474782,62.6801359 380.743132,79.5347515 362.703427,80.4564883 M32.9191711,73.0167556 C29.8906073,70.3832219 25.8086301,69.0006168 21.8583296,69.0006168 C12.4434467,69.0006168 5.26706737,76.7037028 5.26706737,85.8552323 C5.26706737,94.8750852 12.3776083,102.578171 21.7924912,102.578171 C25.9403068,102.578171 29.8906073,101.063889 32.9850094,98.298679 L32.9850094,104.355806 C29.7589306,106.19928 25.6111151,107.252694 21.9241679,107.252694 C9.94158966,107.252694 0,97.9036489 0,85.986909 C0,73.8068157 10.007428,64.2602561 22.319198,64.2602561 C26.0061451,64.2602561 29.7589306,65.1161546 32.9191711,67.0254665 L32.9191711,73.0167556 Z M63.9290302,81.7732551 L63.9290302,65.1161546 L69.1960976,65.1161546 L69.1960976,106.330957 L63.9290302,106.330957 L63.9290302,86.5136158 L43.9141742,86.5136158 L43.9141742,106.330957 L38.6471068,106.330957 L38.6471068,65.1161546 L43.9141742,65.1161546 L43.9141742,81.7732551 L63.9290302,81.7732551 Z M82.758796,95.994337 L77.9525971,106.330957 L72.2904996,106.330957 L92.371194,63.3385193 L112.451888,106.330957 L106.789791,106.330957 L101.983592,95.994337 L82.758796,95.994337 Z M92.371194,74.6627142 L84.9314613,91.3198147 L99.876765,91.3198147 L92.371194,74.6627142 Z M185.795801,106.330957 L179.409482,106.330957 L167.031874,88.8837961 L164.859209,88.8837961 L164.859209,106.330957 L159.592141,106.330957 L159.592141,65.1161546 L165.97846,65.1161546 C169.731246,65.1161546 173.747385,65.1819929 177.039302,67.0254665 C180.528734,69.0664551 182.569723,72.9509173 182.569723,76.9012178 C182.569723,82.8266686 178.553584,87.6987059 172.496456,88.4229277 L185.795801,106.330957 Z M164.925047,84.6701422 L166.571006,84.6701422 C171.903911,84.6701422 177.697685,83.682567 177.697685,77.0987328 C177.697685,70.6465753 171.443043,69.7248385 166.241814,69.7248385 L164.859209,69.7248385 L164.859209,84.6701422 L164.925047,84.6701422 Z M189.482749,65.1161546 L198.17341,65.1161546 C211.077725,65.1161546 221.743536,71.7658271 221.743536,85.5260406 C221.743536,99.5496075 211.27524,106.330957 197.975895,106.330957 L189.482749,106.330957 L189.482749,65.1161546 L189.482749,65.1161546 Z M194.749816,101.656434 L196.59329,101.656434 C207.324939,101.656434 216.542307,97.7061339 216.542307,85.7235556 C216.542307,73.675139 207.259101,69.7906769 196.59329,69.7906769 L194.749816,69.7906769 L194.749816,101.656434 Z M232.080156,106.330957 L226.813089,106.330957 L226.813089,65.1161546 L232.080156,65.1161546 L232.080156,106.330957 Z M272.373221,106.462633 L256.045313,89.6738562 L239.717404,106.528472 L236.030457,102.709848 L252.358365,85.8552323 L236.162133,69.1981318 L239.84908,65.3795079 L256.045313,82.0366085 L272.241545,65.3795079 L275.928492,69.1981318 L259.73226,85.8552323 L276.060169,102.709848 L272.373221,106.462633 Z M284.882506,68.3422333 C284.882506,69.9881919 283.56574,71.3707971 281.853943,71.3707971 C280.142146,71.3707971 278.825379,69.9881919 278.825379,68.3422333 C278.825379,66.6962748 280.142146,65.3136696 281.853943,65.3136696 C283.499901,65.3136696 284.882506,66.6304364 284.882506,68.3422333 M284.487476,68.3422333 C284.487476,66.8937898 283.368224,65.7086996 281.853943,65.7086996 C280.339661,65.7086996 279.220409,66.8937898 279.220409,68.3422333 C279.220409,69.7906769 280.339661,70.975767 281.853943,70.975767 C283.302386,70.975767 284.487476,69.7906769 284.487476,68.3422333 M282.446488,68.7372634 L283.170709,69.7906769 L282.709841,69.7906769 L282.051458,68.8031017 C281.985619,68.8031017 281.919781,68.8031017 281.853943,68.8031017 L281.063883,68.8031017 L281.063883,69.7906769 L280.668852,69.7906769 L280.668852,66.6304364 L281.853943,66.6304364 C282.644003,66.6304364 283.104871,67.0254665 283.104871,67.6838499 C283.170709,68.276395 282.907356,68.6055867 282.446488,68.7372634 M281.919781,68.47391 C282.446488,68.47391 282.775679,68.2105566 282.775679,67.7496883 C282.775679,67.2888199 282.446488,67.0254665 281.919781,67.0254665 L281.063883,67.0254665 L281.063883,68.47391 L281.919781,68.47391 L281.919781,68.47391 Z" id="XMLID_3_"></path>
        </g>
    </g>
</svg>