<svg xmlns="http://www.w3.org/2000/svg" viewBox="0 0 223.39 137.53"><defs><style>.cls-1{fill:#6588fc;}.cls-2{fill:#394075;}.cls-3{fill:#ffca75;}.cls-4{fill:#fff;}.cls-5{fill:#ff6a45;}</style></defs><g id="Layer_2" data-name="Layer 2"><g id="Layer_4" data-name="Layer 4"><path class="cls-1" d="M0,54.36s2.08,45.55,17.85,79.46L63,125.87s17.08,11.43,37.53,11.65,61.76-13.11,69.32-18.22,8.78-17.68-4.89-22.61c-14.33-5.17-41.27-2-41.27-2s-.83-40.56,13.61-51S168.67,36.8,180,34.13,194.6,16,186.67,12.87c-14.59-5.78-36-8.79-65.56-7.18A30.11,30.11,0,0,0,102.67,0C91.89.47,85.78,6.8,82.11,12.25c0,0-25.11.55-41.55,30.88Z"/><path class="cls-2" d="M153.43,125.52c4.31-7.49,12.6-10.2,20.64-11.57,1.27-.21.73-2.14-.53-1.93-8.58,1.46-17.27,4.55-21.84,12.49a1,1,0,0,0,1.73,1Z"/><path class="cls-2" d="M81,81.67c15.27-4.42,29.66,2.72,41.31,12.21,1,.81,2.41-.6,1.41-1.41-12.22-10-27.25-17.36-43.25-12.73A1,1,0,0,0,81,81.67Z"/><path class="cls-2" d="M110.45,65.79a25.54,25.54,0,0,1-4.79-8.5c-.88-2.76-1.67-8,1.24-10.09,6-4.33,12.56,3.24,15.51,7.76.7,1.07,2.44.07,1.73-1-3.2-4.91-11.24-13.67-17.85-8.87C98.84,50.51,104.72,62,109,67.2c.82,1,2.23-.42,1.42-1.41Z"/><rect class="cls-3" x="121.78" y="30.68" width="101.61" height="73.41" rx="7.31"/><rect class="cls-2" x="121.78" y="77.91" width="101.61" height="13.54"/><path class="cls-2" d="M129.56,63.62v7a1,1,0,0,0,2,0v-7a1,1,0,0,0-2,0Z"/><path class="cls-2" d="M134.47,63.62v7a1,1,0,0,0,2,0v-7a1,1,0,0,0-2,0Z"/><path class="cls-2" d="M139.38,63.62v7a1,1,0,0,0,2,0v-7a1,1,0,0,0-2,0Z"/><path class="cls-2" d="M148.7,63.62v7a1,1,0,0,0,2,0v-7a1,1,0,0,0-2,0Z"/><path class="cls-2" d="M153.61,63.62v7a1,1,0,0,0,2,0v-7a1,1,0,0,0-2,0Z"/><path class="cls-2" d="M158.52,63.62v7a1,1,0,0,0,2,0v-7a1,1,0,0,0-2,0Z"/><path class="cls-2" d="M167.84,63.62v7a1,1,0,0,0,2,0v-7a1,1,0,0,0-2,0Z"/><path class="cls-2" d="M172.75,63.62v7a1,1,0,0,0,2,0v-7a1,1,0,0,0-2,0Z"/><path class="cls-2" d="M177.66,63.62v7a1,1,0,0,0,2,0v-7a1,1,0,0,0-2,0Z"/><circle class="cls-4" cx="197.99" cy="48.78" r="8.16" transform="translate(24.93 156.62) rotate(-45.77)"/><circle class="cls-5" cx="208.47" cy="48.78" r="8.16" transform="translate(24.12 157.66) rotate(-43.74)"/><rect class="cls-4" x="184.35" y="63.03" width="14.57" height="8.39" rx="4"/><path class="cls-1" d="M142.44,30.68s3.45,8.8-4.66,14.34-16.71.27-19.67-1.89S111.56,26.58,117,21.8,142.44,30.68,142.44,30.68Z"/><path class="cls-2" d="M84.43,46.26C92.08,55,107.51,76.2,121,65.24c1-.81-.43-2.22-1.42-1.42-12.06,9.79-27-11.23-33.75-19-.85-1-2.26.45-1.42,1.42Z"/><path class="cls-2" d="M82.31,13.83C97.91,18.56,110.6,33.35,120,46.06c.76,1,2.49,0,1.73-1C112,31.88,99,16.81,82.84,11.9a1,1,0,0,0-.53,1.93Z"/><path class="cls-2" d="M121.81,7.15a96.35,96.35,0,0,1,20.33,23.21c.7,1.08,2.43.08,1.73-1A98.11,98.11,0,0,0,123.22,5.73c-1-.8-2.42.61-1.41,1.42Z"/><path class="cls-2" d="M36.89,61.64a40.57,40.57,0,0,1,4-17.22c.55-1.16-1.18-2.17-1.73-1a43.28,43.28,0,0,0-4.25,18.23,1,1,0,0,0,2,0Z"/><path class="cls-2" d="M128.59,46c-3.42-5-7.44-13.71-1.94-18.61s12.37,4.4,14.72,8.77c.61,1.13,2.34.12,1.73-1-2.79-5.19-10.39-14.81-17.29-10C118.49,30.18,123,41.41,126.87,47c.72,1.06,2.46.06,1.72-1Z"/><path class="cls-2" d="M165.91,9.15c4.62,8.65,15,11.08,24,9.64,1.26-.2.73-2.13-.54-1.93-8.19,1.3-17.58-.9-21.75-8.72C167,7,165.3,8,165.91,9.15Z"/><path class="cls-2" d="M79.52,52a75.87,75.87,0,0,0,7.2-8.11c.78-1-1-2-1.73-1a69.89,69.89,0,0,1-6.89,7.7c-.92.9.49,2.31,1.42,1.42Z"/></g></g></svg>