<?xml version="1.0" encoding="UTF-8"?>
<svg width="445px" height="80px" viewBox="0 0 445 80" version="1.1" xmlns="http://www.w3.org/2000/svg" xmlns:xlink="http://www.w3.org/1999/xlink">
    <title>Group</title>
    <g id="Page-1" stroke="none" stroke-width="1" fill="none" fill-rule="evenodd">
        <g id="Group">
            <path d="M29.82,0 C46.2891312,0 59.64,13.3508688 59.64,29.82 C59.64,46.2891312 46.2891312,59.64 29.82,59.64 C13.3508688,59.64 0,46.2891312 0,29.82 C0,21.9112443 3.14174098,14.3264106 8.73407579,8.73407579 C14.3264106,3.14174098 21.9112443,0 29.82,0" id="Path" fill="#29DEC7"></path>
            <rect id="Rectangle" fill="#FF6666" fill-rule="nonzero" x="29.85" y="29.93" width="49.95" height="49.95"></rect>
            <path d="M59.64,29.94 C59.5739692,46.3505501 46.2606747,59.6236231 29.85,59.64 L29.85,29.94 L59.64,29.94 Z" id="Path" fill="#244554"></path>
            <path d="M418.9,44.23 C419.070023,43.0434071 419.522736,41.9150555 420.22,40.94 C420.910192,39.9742197 421.813538,39.18037 422.86,38.62 C423.940047,38.0441871 425.146056,37.7452619 426.37,37.7499445 C427.544323,37.7559014 428.69759,38.0622917 429.72,38.64 C430.707105,39.2020714 431.546767,39.9903256 432.17,40.94 C432.809641,41.9095229 433.197974,43.0229755 433.3,44.18 L418.9,44.23 Z M340.82,66.23 C340.865428,67.210202 341.649798,67.9945717 342.63,68.04 L350.35,68.04 C351.330202,67.9945717 352.114572,67.210202 352.16,66.23 L352.16,45.23 C352.426571,44.5319907 352.761535,43.8620623 353.16,43.23 C353.601538,42.5156236 354.136237,41.8632235 354.75,41.29 C355.424317,40.6711773 356.203043,40.1768553 357.05,39.83 C358.048548,39.4460791 359.110215,39.2527404 360.18,39.26 C361.582073,39.1986038 362.971769,39.5460277 364.18,40.26 C365.229963,40.9200657 366.042532,41.89725 366.5,43.05 C367.033164,44.4192798 367.288129,45.8810761 367.25,47.35 L367.25,66.23 C367.250891,66.7001041 367.433651,67.1516286 367.76,67.49 C368.097291,67.8483458 368.567886,68.0510638 369.06,68.0500042 L376.22,68.0500042 C376.700686,68.0384226 377.15726,67.8370987 377.49,67.49 C377.830065,67.1582952 378.024328,66.7050159 378.03,66.23 L378.03,46.94 C378.03,46.35 378.03,45.78 378.03,45.24 C378.03,44.7 378.03,44.24 378.03,43.87 C378.03,43.5 378.03,43.33 378.03,43.32 C378.175757,43.1026885 378.336127,42.8955437 378.51,42.7 C378.942582,42.185955 379.432419,41.7229592 379.97,41.32 C380.68505,40.7472138 381.48016,40.2822768 382.33,39.94 C383.472317,39.5176643 384.682174,39.3075491 385.9,39.32 C387.30155,39.2637447 388.689812,39.6108102 389.9,40.32 C390.936436,40.9777602 391.746185,41.9375919 392.22,43.07 C392.782993,44.4317703 393.052194,45.8970442 393.01,47.37 L393.01,66.23 C393.017857,66.698714 393.199623,67.1477821 393.52,67.49 C393.859352,67.8453937 394.328616,68.0475384 394.82,68.0500042 L402.54,68.0500042 C403.032114,68.0510638 403.502709,67.8483458 403.84,67.49 C404.166349,67.1516286 404.349109,66.7001041 404.35,66.23 L404.35,48.04 C404.375511,45.6143559 404.076186,43.1962128 403.46,40.85 C402.902447,38.6579078 401.928045,36.5936691 400.59,34.77 C399.244867,32.9613077 397.47187,31.5147343 395.43,30.56 C393.010531,29.4484523 390.372203,28.8948135 387.71,28.94 C386.098877,28.9364247 384.495677,29.1654534 382.95,29.62 C381.5885,30.0163851 380.274116,30.5595746 379.03,31.24 C378.002498,31.8239134 377.025745,32.4929218 376.11,33.24 C375.462453,33.7468711 374.850975,34.2982037 374.28,34.89 C372.839093,33.0635863 371.021055,31.5695891 368.95,30.51 C366.754794,29.4332767 364.334636,28.895083 361.89,28.94 C357.869509,28.9522683 353.979279,30.3668975 350.89,32.94 C350.272011,33.4413571 349.693627,33.9896511 349.16,34.58 L347.78,30.94 C347.678742,30.6363371 347.482383,30.3733566 347.22,30.19 C346.904806,29.9858315 346.535441,29.8812943 346.16,29.89 L342.64,29.89 C341.640365,29.89 340.83,30.7003646 340.83,31.7 L340.82,66.23 Z M297.49,44.23 C297.650295,43.045844 298.092707,41.9175215 298.78,40.94 C299.469655,39.9737344 300.373126,39.1797752 301.42,38.62 C302.499896,38.0437945 303.706005,37.7448444 304.93,37.75 C306.104323,37.7559014 307.25759,38.0622917 308.28,38.64 C309.278258,39.1979206 310.128583,39.9865285 310.76,40.94 C311.399641,41.9095229 311.787974,43.0229755 311.89,44.18 L297.49,44.23 Z M285.779644,48.94 C285.764529,51.6074822 286.253095,54.2538794 287.22,56.74 C288.134732,59.0990788 289.492486,61.2613024 291.22,63.11 C292.969889,64.9443223 295.071807,66.4068216 297.4,67.41 C299.890733,68.4718906 302.572382,69.0129847 305.28,69.0002283 C307.211607,69.0046724 309.136325,68.7695411 311.01,68.3 C312.673427,67.8832169 314.276512,67.2547539 315.78,66.43 C317.123482,65.7035505 318.367169,64.8060786 319.48,63.76 C319.890194,63.4674656 320.132614,62.9938142 320.13,62.49 C320.111864,62.0302831 319.914437,61.5959436 319.58,61.28 L315.67,56.8 C315.397229,56.45822 314.976753,56.2684479 314.54,56.29 C314.056686,56.3535949 313.594638,56.5281463 313.19,56.8 C311.004759,58.3138232 308.418106,59.1423877 305.76,59.18 C304.481437,59.1903589 303.214668,58.9349618 302.04,58.43 C300.981528,57.9796491 300.022998,57.3236344 299.22,56.5 C298.451218,55.7299263 297.830867,54.8248241 297.39,53.83 C296.960546,52.902983 296.696568,51.9079868 296.61,50.89 L321,50.89 C321.447405,50.8907749 321.88026,50.7311152 322.22,50.44 C322.570479,50.1493467 322.793066,49.7328933 322.84,49.28 C322.84,48.91 322.94,48.49 322.97,47.99 C323,47.49 323.030058,47.05 323.030058,46.7 C323.036078,44.2609331 322.560305,41.8446876 321.63,39.59 C320.74609,37.470821 319.447287,35.5498167 317.81,33.94 C316.177033,32.3541242 314.251303,31.1008716 312.14,30.25 C309.938292,29.3749575 307.589203,28.9302599 305.22,28.94 C302.531368,28.9213193 299.869386,29.4734846 297.41,30.56 C295.068214,31.5802048 292.961243,33.0710825 291.22,34.94 C289.495793,36.7912415 288.13846,38.9527947 287.22,41.31 C286.267165,43.7409283 285.778721,46.3290029 285.779644,48.94 L285.779644,48.94 Z M265.78,68 C265.927275,68.2599814 266.132612,68.4824303 266.38,68.65 C266.674767,68.850003 267.023817,68.954718 267.38,68.9501527 L267.86,68.9501527 C268.215307,68.948649 268.562624,68.8444541 268.86,68.65 C269.101083,68.4782398 269.302318,68.2565401 269.45,68 L286.89,32.17 C287.207337,31.6951138 287.256512,31.0898864 287.02,30.57 C286.697018,30.09021 286.135094,29.8284918 285.56,29.89 L278.13,29.89 C277.67411,29.8640949 277.217205,29.9182465 276.78,30.05 C276.360362,30.2091941 276.02187,30.5296809 275.84,30.94 L267.64,48.66 L267.45,48.66 L259.75,30.94 C259.613889,30.644975 259.407951,30.3875524 259.15,30.19 C258.820136,29.9771463 258.432177,29.8722926 258.04,29.89 L249.75,29.89 C249.187934,29.8242525 248.638497,30.0892291 248.34,30.57 C248.106656,31.084946 248.136454,31.6808985 248.42,32.17 L265.78,68 Z M233.63,66.19 C233.633772,66.6674432 233.832458,67.1226151 234.18,67.45 C234.509022,67.7965086 234.962319,67.997974 235.44,68.01 L243.44,68.01 C243.914682,67.9975352 244.364707,67.795924 244.69,67.45 C245.043207,67.1257495 245.246004,66.6694554 245.25,66.19 L245.25,11.73 C245.244024,11.2480802 245.041787,10.7894363 244.69,10.46 C244.365357,10.1157127 243.913209,9.92 243.44,9.92 L235.44,9.92 C234.963802,9.92 234.508412,10.1151671 234.18,10.46 C233.83286,10.7918117 233.634516,11.2498078 233.63,11.73 L233.63,66.19 Z M201.569882,48.94 C201.563749,47.2370958 201.983117,45.5596207 202.79,44.06 C203.563482,42.6466929 204.690126,41.4580317 206.06,40.61 C208.906744,38.8760337 212.483256,38.8760337 215.33,40.61 C216.695869,41.462941 217.821401,42.6504287 218.6,44.06 C219.438304,45.5494359 219.875889,47.2308665 219.87,48.94 C219.890464,50.6864547 219.459918,52.4086407 218.62,53.94 C217.84771,55.3754461 216.722284,56.5903556 215.35,57.47 C212.515211,59.2460657 208.914789,59.2460657 206.08,57.47 C204.703375,56.5955543 203.576775,55.379378 202.81,53.94 C201.98789,52.4021577 201.561731,50.6837763 201.569882,48.94 L201.569882,48.94 Z M191.219749,48.94 C191.214449,51.6031196 191.73791,54.2408194 192.76,56.7 C193.740188,59.0786776 195.161893,61.250257 196.95,63.1 C198.721253,64.9304685 200.830027,66.4008372 203.16,67.43 C207.993763,69.5698688 213.506237,69.5698688 218.34,67.43 C220.670098,66.4010581 222.778911,64.9306615 224.55,63.1 C226.339436,61.2513195 227.761318,59.0794712 228.74,56.7 C229.742053,54.2367775 230.245111,51.599125 230.22,48.94 C230.205934,43.7052278 228.150189,38.6824661 224.49,34.94 C222.723022,33.1070516 220.613038,31.639237 218.28,30.62 C213.445447,28.4838687 207.934553,28.4838687 203.1,30.62 C200.777799,31.6428633 198.678314,33.1104648 196.92,34.94 C195.129227,36.7647125 193.706652,38.9172488 192.73,41.28 C191.720158,43.706868 191.206723,46.3114467 191.219749,48.94 L191.219749,48.94 Z M171.22,68.05 C171.367275,68.3099814 171.572612,68.5324303 171.82,68.7 C172.115045,68.8994182 172.463907,69.0040769 172.82,69.0001147 L173.3,69.0001147 C173.655307,68.998649 174.002624,68.8944541 174.3,68.7 C174.540669,68.5277735 174.741814,68.3061724 174.89,68.05 L192.33,32.22 C192.649231,31.7457753 192.698488,31.1395394 192.46,30.62 C192.137018,30.14021 191.575094,29.8784918 191,29.94 L183.57,29.94 C183.114097,29.913679 182.65712,29.9678392 182.22,30.1 C181.800362,30.2591941 181.46187,30.5796809 181.28,30.99 L173.08,48.71 L172.89,48.71 L165.22,30.94 C165.083889,30.644975 164.877951,30.3875524 164.62,30.19 C164.290136,29.9771463 163.902177,29.8722926 163.51,29.89 L155.22,29.89 C154.657934,29.8242525 154.108497,30.0892291 153.81,30.57 C153.578326,31.085262 153.608084,31.6804176 153.89,32.17 L171.22,68.05 Z M115.6,66.24 C115.650003,67.2181753 116.431825,67.999997 117.41,68.05 L124.46,68.05 C125.110979,68.1140477 125.765534,67.9705354 126.33,67.64 C126.717256,67.2838389 126.907429,66.7617961 126.84,66.24 L126.84,45.24 C127.115807,44.5252456 127.489362,43.8521735 127.95,43.24 C128.480625,42.5132074 129.106184,41.8607427 129.81,41.3 C130.609457,40.6801241 131.499985,40.1876352 132.45,39.84 C133.526217,39.4612229 134.659074,39.2684681 135.8,39.27 C137.165211,39.2281464 138.514228,39.5749374 139.69,40.27 C140.760592,40.93067 141.601989,41.9047356 142.1,43.06 C142.687553,44.415757 142.974137,45.8827966 142.94,47.36 L142.94,66.23 C142.941924,66.6999014 143.124534,67.1510558 143.45,67.49 C143.787291,67.8483458 144.257886,68.0510638 144.75,68.05 L152.56,68.05 C153.040686,68.0384226 153.49726,67.8370987 153.83,67.49 C154.171937,67.1595831 154.366551,66.7054835 154.370028,66.23 L154.370028,47.94 C154.373558,45.5215685 154.036927,43.1146574 153.37,40.79 C152.760634,38.6021306 151.742724,36.5493453 150.37,34.74 C149.01215,32.9525119 147.246327,31.5158517 145.22,30.55 C142.78201,29.4420247 140.127517,28.8919946 137.45,28.94 C135.761012,28.9305987 134.078699,29.1526639 132.45,29.6 C131.082926,29.9768453 129.761599,30.5033636 128.51,31.17 C127.507979,31.7010581 126.557258,32.3237134 125.67,33.03 C125.081334,33.500354 124.523517,34.0080678 124,34.55 L122.66,31.02 C122.533689,30.699507 122.33118,30.4146221 122.07,30.19 C121.780741,29.9766299 121.429394,29.8641989 121.07,29.87 L117.45,29.87 C116.983154,29.8724323 116.535302,30.0551557 116.2,30.38 C115.84265,30.7179879 115.640127,31.1881314 115.64,31.68 L115.6,66.24 Z M98.43,66.24 C98.480003,67.2181753 99.2618247,67.999997 100.24,68.05 L108.22,68.05 C109.200202,68.0045717 109.984572,67.220202 110.03,66.24 L110.03,31.74 C110.028698,31.2483746 109.826366,30.7786748 109.47,30.44 C109.132559,30.1196865 108.68526,29.9407667 108.22,29.94 L100.31,29.94 C99.3103646,29.94 98.5,30.7503646 98.5,31.75 L98.43,66.24 Z M104.05,23.0800315 C106.413737,23.0872365 108.606385,21.8484094 109.82,19.82 C111.027143,17.7712594 111.027143,15.2287406 109.82,13.18 C109.243043,12.2041831 108.423057,11.3945333 107.44,10.83 C106.415005,10.2298132 105.247779,9.91556008 104.06,9.91993635 C102.900486,9.91478849 101.762027,10.2296817 100.77,10.83 C98.7771672,12.0241281 97.5575285,14.1767857 97.5575285,16.5 C97.5575285,18.8232143 98.7771672,20.9758719 100.77,22.17 C101.770702,22.7746286 102.920937,23.0864393 104.09,23.07 L104.05,23.0800315 Z M330.22,69 C332.581193,69.007337 334.772461,67.7730872 335.99,65.75 C337.195005,63.7006768 337.195005,61.1593232 335.99,59.11 C335.412681,58.1344654 334.592779,57.3248984 333.61,56.76 C332.585005,56.1598132 331.417779,55.8455601 330.23,55.8499363 C329.070486,55.8447885 327.932027,56.1596817 326.94,56.76 C324.947167,57.9541281 323.727529,60.1067857 323.727529,62.43 C323.727529,64.7532143 324.947167,66.9058719 326.94,68.1 C327.929111,68.6974465 329.06449,69.0089834 330.22,69 Z M407.219958,49 C407.214709,51.6512534 407.706538,54.2799972 408.67,56.75 C409.58451,59.10919 410.94229,61.2714535 412.67,63.12 C414.41953,64.9547412 416.521539,66.4173037 418.85,67.42 C421.340733,68.4818906 424.022382,69.0229847 426.73,69.0102283 C428.661601,69.0145693 430.586306,68.7794396 432.46,68.31 C434.120629,67.8897634 435.72039,67.257925 437.22,66.43 C438.563722,65.7039331 439.807457,64.8064269 440.92,63.76 C441.328891,63.4663422 441.570941,62.9934139 441.57,62.49 C441.550314,62.028573 441.34902,61.5936361 441.01,61.28 L437.1,56.8 C436.8262,56.4595464 436.406439,56.2700969 435.97,56.29 C435.486775,56.353947 435.024805,56.5284689 434.62,56.8 C432.444346,58.3117119 429.868884,59.1435165 427.22,59.19 C425.944801,59.1989738 424.681578,58.9436052 423.51,58.44 C422.446851,57.9883136 421.484679,57.3287332 420.68,56.5 C419.911394,55.7297801 419.291067,54.8247125 418.85,53.83 C418.419176,52.9034783 418.155132,51.9082357 418.07,50.89 L442.46,50.89 C442.898326,50.8809048 443.319521,50.7180897 443.65,50.43 C443.999641,50.1386632 444.222032,49.7225762 444.27,49.27 C444.27,48.9 444.36,48.48 444.4,47.98 C444.44,47.48 444.460068,47.04 444.460068,46.69 C444.466604,44.2508825 443.990811,41.834535 443.06,39.58 C442.169239,37.4625615 440.863583,35.5448794 439.22,33.94 C437.587033,32.3541242 435.661303,31.1008716 433.55,30.25 C431.345238,29.3734604 428.992587,28.9287312 426.62,28.94 C423.931368,28.9213193 421.269386,29.4734846 418.81,30.56 C416.479376,31.5844961 414.383043,33.07507 412.65,34.94 C410.925793,36.7912415 409.56846,38.9527947 408.65,41.31 C407.701039,43.7417167 407.216007,46.3296825 407.219958,48.94 L407.219958,49 Z" id="Shape" fill="#FFFFFF" fill-rule="nonzero"></path>
        </g>
    </g>
</svg>