<?xml version="1.0" encoding="UTF-8"?>
<svg width="396px" height="80px" viewBox="0 0 396 80" version="1.1" xmlns="http://www.w3.org/2000/svg" xmlns:xlink="http://www.w3.org/1999/xlink">
    <title>Shape</title>
    <g id="Page-1" stroke="none" stroke-width="1" fill="none" fill-rule="evenodd">
        <path d="M79.075016,39.737508 C79.075016,61.5301877 61.4301877,79.175016 39.637508,79.175016 C17.8448283,79.175016 0.2,61.5301877 0.2,39.737508 C0.2,17.9448283 17.8448283,0.3 39.637508,0.3 C61.4301877,0.3 79.075016,17.9448283 79.075016,39.737508 L79.075016,39.737508 Z M23.9020081,55.34133 L43.4561648,55.34133 C43.7853594,55.34133 43.9170372,54.9462965 43.7853594,54.6829409 L27.9840206,35.1287842 C27.720665,34.8654285 27.3914704,34.9971064 27.3256315,35.260462 L23.5069747,54.8146187 C23.4411358,55.1438133 23.6386525,55.34133 23.9020081,55.34133 L23.9020081,55.34133 Z M23.5069747,25.8454977 L43.0611314,25.8454977 C43.324487,25.8454977 43.5220038,26.1088533 43.4561648,26.30637 L39.637508,45.8605267 C39.5716691,46.1897213 39.1766356,46.2555602 38.9791189,45.9922046 L23.1777801,26.3722089 C23.0461023,26.1746922 23.1777801,25.8454977 23.5069747,25.8454977 L23.5069747,25.8454977 Z M45.0362987,26.1088533 C45.1021376,25.9771755 45.2338155,25.7796587 45.4313322,25.7796587 L59.5208592,25.7796587 C59.7842149,25.7796587 59.9817316,26.0430144 59.9158927,26.2405311 L57.2823363,38.947441 C57.2164973,39.1449578 57.0848195,39.2766356 56.8873028,39.2766356 L56.4922693,39.2766356 C49.5791836,39.2766356 44.048715,32.8902612 45.0362987,26.1088533 L45.0362987,26.1088533 Z M108.175815,23.0802634 L122.265342,23.0802634 C122.923731,23.0802634 123.384603,23.4752968 123.187087,24.1995249 L122.39702,28.7424098 C125.162254,24.7262362 129.178428,22.2901964 133.326279,22.2901964 C135.367285,22.2901964 137.539969,23.0802634 138.72507,24.1995249 C139.383459,24.857914 139.383459,25.2529475 138.922586,25.9113366 L134.840574,31.7051608 C134.313863,32.4293888 133.984668,32.3635499 133.128762,31.9685164 C132.338695,31.6393219 131.285273,31.3101273 130.23185,31.3101273 C125.359771,31.3101273 121.211919,34.536234 119.302591,44.2803929 L116.471518,58.9624701 C116.274001,59.9500538 115.549773,60.1475705 115.154739,60.1475705 L107.714942,60.1475705 C107.122392,60.1475705 106.595681,59.6208592 106.793198,58.9624701 L112.323666,30.7175771 L107.649104,24.133686 C107.25407,23.6069747 107.517426,23.0802634 108.175815,23.0802634 L108.175815,23.0802634 Z M135.10393,41.3176419 C137.013258,29.8616713 145.440639,22.2901964 156.369898,22.2901964 C167.496674,22.2901964 172.763787,31.1784495 171.183653,40.7909306 C170.78862,43.2928092 169.932714,45.2679765 167.891708,45.2679765 L144.189699,45.2679765 C144.387216,50.6667673 148.140034,53.2344848 153.143791,53.2344848 C156.435737,53.2344848 159.530166,51.9835455 161.834528,50.4692506 C162.427078,50.0083782 163.085467,49.8108614 163.4805,50.4692506 L166.179896,54.6829409 C166.640768,55.34133 166.377413,55.8022024 165.719023,56.3947526 C162.229561,59.6208592 156.501576,61.0693153 151.300302,61.0693153 C139.646815,61.0693153 133.326279,52.4444179 135.10393,41.3176419 L135.10393,41.3176419 Z M162.690434,38.8157632 C163.019628,33.021939 159.069293,30.5858993 155.316475,30.5858993 C150.312718,30.5858993 146.494061,33.9436838 144.979766,38.8157632 L162.690434,38.8157632 Z M206.604988,59.2258258 L215.098207,15.903822 L210.950356,10.3733535 C210.752839,9.97831999 211.016195,9.51744761 211.542906,9.51744761 L224.57901,9.51744761 C225.303238,9.51744761 225.698272,9.97831999 225.500755,10.6367091 L221.682098,29.7299934 C224.57901,25.3187864 228.990217,22.3560353 234.125653,22.3560353 C242.355516,22.3560353 247.030079,29.4007989 245.252429,38.0256963 L241.038738,59.028309 C240.90706,59.818376 240.248671,60.2134094 239.72196,60.2134094 L232.018807,60.2134094 C231.294579,60.2134094 230.899546,59.7525371 231.031224,59.028309 L234.849881,40.0667025 C235.837464,34.9312674 234.454847,31.7709997 231.360418,31.7709997 C225.500755,31.7709997 220.892031,38.3548908 218.916864,47.6381774 L216.414985,59.2916647 C216.349146,59.7525371 215.954113,60.1475705 215.427402,60.1475705 L207.329216,60.1475705 C206.868343,60.0817316 206.539149,59.6866982 206.604988,59.2258258 L206.604988,59.2258258 Z M247.885985,41.7126753 C249.795313,29.4666378 258.420211,22.2243575 268.493564,22.2243575 C273.826516,22.2243575 277.974368,24.6603972 279.62034,28.6765708 L280.476246,24.1995249 C280.607924,23.4094579 281.200474,23.0144245 281.858863,23.0144245 L288.969466,23.0144245 C289.759533,23.0144245 290.088727,23.5411358 289.891211,24.1995249 L283.109803,58.9624701 C282.978125,59.6208592 282.517252,60.0817316 281.727186,60.0817316 L274.550744,60.0817316 C273.892355,60.0817316 273.56316,59.6866982 273.694838,58.9624701 L274.353227,55.34133 C270.995443,59.1599869 266.847592,61.0696926 262.304707,61.0696926 C251.967998,61.1351542 246.174173,52.5760957 247.885985,41.7126753 L247.885985,41.7126753 Z M265.201619,52.2469012 C271.127121,52.2469012 275.538328,47.2431439 276.394234,41.4493197 C277.25014,35.5896566 274.089872,31.1784495 268.625242,31.1784495 C262.765579,31.1784495 258.551889,35.9188511 257.564305,41.5151586 C256.64256,47.177305 259.473633,52.2469012 265.201619,52.2469012 L265.201619,52.2469012 Z M287.718526,58.8966312 L294.631612,24.0020081 C294.76329,23.4094579 295.092485,23.0802634 295.487518,23.0802634 L303.25651,23.0802634 C303.914899,23.0802634 304.375771,23.4752968 304.178254,24.1995249 L303.388187,28.7424098 C306.153422,24.7262362 310.169595,22.2901964 314.251608,22.2901964 C316.292614,22.2901964 318.531137,23.0802634 319.650399,24.1995249 C320.308788,24.857914 320.308788,25.2529475 319.847915,25.9113366 L315.765903,31.7051608 C315.239191,32.4293888 314.844158,32.3635499 314.054091,31.9685164 C313.264024,31.6393219 312.210602,31.3101273 311.09134,31.3101273 C306.219261,31.3101273 302.071409,34.536234 300.22792,44.2803929 L297.396846,58.9624701 C297.19933,59.9500538 296.409263,60.1475705 296.080068,60.1475705 L288.640271,60.1475705 C288.11356,60.0817316 287.586849,59.5550203 287.718526,58.8966312 L287.718526,58.8966312 Z M313.264024,70.6817964 C312.803152,70.3526018 312.803152,69.7600516 313.132346,69.2333403 L316.55597,63.8345496 C316.951003,63.2419994 317.477714,63.1103216 317.938587,63.4395161 C321.296371,65.5463613 324.588317,66.8631395 328.60449,66.8631395 C335.649254,66.8631395 341.508917,64.0320663 343.549923,54.5512631 C339.665428,58.1724032 336.110126,59.9500538 330.645497,59.9500538 C320.045432,59.9500538 314.514963,51.0618008 316.226775,41.0542862 C318.201942,29.7958323 326.629323,22.1585186 337.229388,22.1585186 C343.089051,22.1585186 347.105225,25.4504642 348.356164,28.1498596 L349.21207,24.133686 C349.343748,23.343619 349.870459,22.9485856 350.463009,22.9485856 L357.63945,22.9485856 C358.363678,22.9485856 358.758712,23.4094579 358.627034,24.133686 L352.635693,54.7487798 C350.002137,68.0482399 340.784689,75.0271645 328.275296,75.0271645 C323.008183,75.0930034 317.082681,73.7762252 313.264024,70.6817964 L313.264024,70.6817964 Z M333.47657,51.4568342 C339.402072,51.4568342 343.813279,46.7164326 344.669185,41.0542862 C345.525091,35.3921398 342.430662,31.1784495 336.900193,31.1784495 C331.04053,31.1784495 326.82684,35.7871733 325.839256,41.1201251 C324.917511,46.5847548 327.748585,51.4568342 333.47657,51.4568342 L333.47657,51.4568342 Z M358.89039,41.3176419 C360.799718,29.8616713 369.227099,22.2901964 380.156358,22.2901964 C391.283134,22.2901964 396.550247,31.1784495 394.904274,40.7909306 C394.57508,43.2928092 393.653335,45.2679765 391.612329,45.2679765 L367.910321,45.2679765 C368.107837,50.6667673 371.860655,53.2344848 376.864413,53.2344848 C380.156358,53.2344848 383.250787,51.9835455 385.555149,50.4692506 C386.147699,50.0083782 386.806088,49.8108614 387.201122,50.4692506 L389.900517,54.6829409 C390.361389,55.34133 390.098034,55.8022024 389.439645,56.3947526 C385.950182,59.6208592 380.222197,61.0693153 375.020923,61.0693153 C363.433275,61.0693153 357.112739,52.4444179 358.89039,41.3176419 L358.89039,41.3176419 Z M386.476894,38.8157632 C386.806088,33.021939 382.855754,30.5858993 379.102936,30.5858993 C374.099178,30.5858993 370.280521,33.9436838 368.766226,38.8157632 L386.476894,38.8157632 Z M190.211099,61.1351542 C195.149017,61.1351542 199.955257,59.7525371 204.366465,55.6046856 C205.024854,55.0121354 205.090693,54.2220685 204.62982,53.7611961 L200.613647,49.2841501 C200.218613,48.8232778 199.626063,48.8232778 199.165191,49.2183112 C197.453379,50.4692506 194.753983,51.9177066 191.527877,51.9177066 C185.734053,51.9177066 182.507946,47.3748217 183.232174,41.7126753 C183.956402,36.0505289 188.433448,31.507644 194.095594,31.507644 C197.190023,31.507644 199.165191,32.6269055 201.337875,34.7995896 C201.930425,35.3921398 202.259619,35.3921398 202.918008,34.8654285 L208.119282,30.3883825 C208.645994,29.9275102 208.777672,29.4666378 208.382638,28.8740876 C205.22237,24.3970416 200.350291,22.2901964 194.9515,22.2901964 C184.022241,22.2901964 175.199827,30.3883825 173.751371,41.185964 C172.171237,52.8394514 179.940228,61.1351542 190.211099,61.1351542 L190.211099,61.1351542 Z" id="Shape" fill="#FFFFFF"></path>
    </g>
</svg>