<svg width="395" height="122" viewBox="0 0 395 122" fill="none" xmlns="http://www.w3.org/2000/svg">
<path fill-rule="evenodd" clip-rule="evenodd" d="M64.5011 0C47.436 0 31.355 5.53992 19.2205 15.5993C13.2331 20.5628 8.52133 26.3637 5.21644 32.8415C1.75507 39.6254 0 46.8423 0 54.2913C0 65.5289 4.03217 76.3051 11.6604 85.455C18.2267 93.3313 27.0523 99.5385 37.3473 103.553C36.4469 108.236 35.2823 112.389 33.8729 115.933C33.2835 117.416 33.528 119.107 34.5121 120.354C35.3418 121.405 36.5871 122 37.885 122C38.1264 122 38.3703 121.98 38.6131 121.937C49.2547 120.088 55.7808 113.985 59.6265 108.425C61.2904 108.534 62.9018 108.587 64.5011 108.587C81.5653 108.587 97.6458 103.047 109.78 92.9864C115.767 88.0225 120.478 82.2209 123.784 75.7429C127.245 68.9583 129 61.7408 129 54.2913C129 48.5821 128.577 41.1346 125.277 34.1608C124.238 31.9664 121.651 31.0458 119.497 32.1035C117.344 33.1614 116.44 35.7978 117.478 37.992C119.485 42.2342 120.342 47.1089 120.342 54.2913C120.342 79.3662 95.2916 99.7659 64.5011 99.7659C62.3496 99.7659 60.1618 99.6553 57.8125 99.4279C56.148 99.2676 54.5414 100.097 53.6847 101.56C51.3292 105.584 48.3033 108.623 44.6441 110.65C45.3828 107.745 46.0106 104.631 46.5233 101.329C46.8559 99.1854 45.6089 97.1138 43.5831 96.444C22.367 89.432 8.65817 72.886 8.65817 54.2913C8.65817 29.219 33.7092 8.82153 64.5011 8.82153C83.8394 8.82153 96.4267 14.701 101.913 26.2963C107.84 38.8227 103.736 55.3917 97.0387 66.2553C91.9559 74.5008 85.5286 79.6231 80.2646 79.6231C76.371 79.6231 72.8499 76.9435 69.9977 72.9867C75.1113 64.7694 78.2798 54.9889 78.2798 47.3935C78.2798 43.3957 77.4121 40.1156 75.7011 37.6443C74.2212 35.5062 71.3978 32.9577 66.3535 32.9577C62.1633 32.9577 58.664 35.0428 56.5001 38.8291C54.8328 41.7463 53.9875 45.5649 53.9875 50.1788C53.9875 57.3193 56.1121 65.7077 59.6048 72.5779C56.1825 76.7826 52.3112 79.6231 48.7164 79.6231C46.967 79.6231 42.9498 78.4677 38.9899 74.1374C34.2243 68.9258 28.8499 58.3008 30.3112 37.2796C30.4801 34.8498 28.6837 32.7403 26.2987 32.5682C23.9122 32.3935 21.8435 34.2264 21.6746 36.6565C19.9934 60.8419 26.7178 73.658 32.655 80.1509C38.2467 86.2659 44.6183 88.4446 48.7164 88.4446C54.1552 88.4446 59.6225 85.5652 64.5805 80.1937C69.1095 85.5593 74.5281 88.4446 80.2646 88.4446C84.6602 88.4446 89.305 86.6457 93.6973 83.2417C97.574 80.2374 101.265 75.9856 104.371 70.9468C108.704 63.9176 111.731 55.6225 112.893 47.5896C114.228 38.3724 113.128 29.6847 109.712 22.4656C106.853 16.4227 102.505 11.5031 96.7897 7.84277C88.6631 2.63871 77.7998 0 64.5011 0ZM62.6457 50.1788C62.6457 47.2305 63.1204 44.7761 63.9822 43.2681C64.6886 42.0322 65.441 41.779 66.3535 41.779C67.7728 41.779 68.2847 42.2355 68.6261 42.7291C68.9978 43.2659 69.6214 44.5864 69.6214 47.3935C69.6214 52.2314 67.8932 58.1849 65.2226 63.6523C63.5778 59.0834 62.6457 54.2442 62.6457 50.1788Z" fill="white"/>
<path d="M164.717 90.7183C167.631 90.7183 169.337 89.2394 170.119 86.5634L179.998 52.7606H180.141L189.807 86.6338C190.589 89.169 192.294 90.7183 195.279 90.7183C198.193 90.7183 199.828 89.3099 200.61 85.7887L208.57 46.4225C208.926 44.8028 209.068 43.6056 209.068 43.1127C209.068 41.0704 207.575 39.7324 205.514 39.7324C203.524 39.7324 202.032 40.7183 201.534 43.4648L195.066 80.0845H194.924L184.192 43.4648C183.41 41 182.273 39.7324 180.069 39.7324C177.937 39.7324 176.729 40.8592 175.876 43.7465L165.215 80.0845H165.073L158.605 43.4648C158.179 40.9296 156.828 39.7324 154.625 39.7324C152.564 39.7324 151 41 151 43.1127C151 44.2394 151.853 48.1831 152.066 48.8873L159.102 85.0141C160.026 88.9577 161.377 90.7183 164.717 90.7183Z" fill="white"/>
<path d="M229.113 91C234.231 91 239.135 89.2394 242.049 87.0563C243.754 85.7887 244.821 84.2394 244.821 82.831C244.821 81 243.541 79.662 241.693 79.662C240.912 79.662 239.988 80.0845 238.921 80.8591C235.581 83.5352 232.809 84.5915 229.397 84.5915C223.498 84.5915 219.376 80.2958 219.021 74.3099H241.338C244.039 74.3099 245.389 73.2535 245.389 70.5775C245.389 60.9296 239.135 52.1268 228.545 52.1268C217.883 52.1268 211.131 61.4225 211.131 71.5634C211.131 82.6197 217.954 91 229.113 91ZM219.021 68.8873C219.376 62.7606 223.285 58.2535 228.402 58.2535C233.591 58.2535 237.5 62.831 237.784 68.8873H219.021Z" fill="white"/>
<path d="M254.359 90.7183C256.633 90.7183 258.055 89.0282 258.055 86.7042V39.9437C258.055 37.6901 256.704 36 254.359 36C252.156 36 250.734 37.6901 250.734 39.9437V86.7042C250.734 89.0282 252.156 90.7183 254.359 90.7183Z" fill="white"/>
<path d="M269.351 90.7183C271.626 90.7183 273.047 89.0282 273.047 86.7042V39.9437C273.047 37.6901 271.697 36 269.351 36C267.148 36 265.727 37.6901 265.727 39.9437V86.7042C265.727 89.0282 267.148 90.7183 269.351 90.7183Z" fill="white"/>
<path d="M296.142 91C298.914 91 301.615 90.507 303.676 89.5211C305.808 88.5352 307.23 87.1268 307.23 85.2958C307.23 83.6056 305.737 82.1972 304.173 82.1972C303.534 82.1972 302.681 82.6901 301.473 83.1127C300.193 83.676 298.487 84.169 296.284 84.169C290.385 84.169 286.618 78.4648 286.618 71.3521C286.618 64.9437 290.243 58.9577 296.497 58.9577C298.914 58.9577 300.335 59.5915 301.757 60.2253C302.539 60.6479 303.249 61 303.96 61C306.163 61 307.372 59.3803 307.372 57.338C307.372 55.7183 306.092 54.4507 304.173 53.6056C302.183 52.6901 299.411 52.1268 296.568 52.1268C285.978 52.1268 279.013 61.2113 279.013 71.7746C279.013 81.8451 285.765 91 296.142 91Z" fill="white"/>
<path d="M327.711 91C332.047 91 335.458 89.3099 337.804 85.8591H337.946L338.017 87.4789C338.301 89.4507 339.368 90.7183 341.5 90.7183C343.774 90.7183 345.125 88.9577 345.125 86.7042V56.3521C345.125 54.169 343.774 52.4084 341.5 52.4084C339.368 52.4084 338.301 53.6761 338.017 55.6479L337.946 57.2676H337.804C335.032 53.7465 331.976 52.1268 327.569 52.1268C317.832 52.1268 311.08 60.7183 311.08 71.5634C311.08 82.7606 317.69 91 327.711 91ZM328.28 84.4507C322.167 84.4507 318.685 78.9577 318.685 71.5634C318.685 64.3803 322.239 58.6761 328.209 58.6761C334.463 58.6761 337.804 64.3099 337.804 71.5634C337.804 78.9577 334.392 84.4507 328.28 84.4507Z" fill="white"/>
<path d="M356.53 90.7183C358.805 90.7183 360.226 89.0282 360.226 86.7042V69.8732C360.226 64.662 362.43 61.0704 368.187 59.8028C371.74 58.9577 372.664 57.6197 372.664 55.9296C372.664 53.8873 371.03 52.1268 368.4 52.1268C365.415 52.1268 362.358 54.3803 360.297 57.9718H360.155L360.084 55.6479C359.871 53.6761 358.734 52.4084 356.53 52.4084C354.327 52.4084 352.906 54.169 352.906 56.3521V86.7042C352.906 89.0282 354.327 90.7183 356.53 90.7183Z" fill="white"/>
<path d="M384.552 90.7183C386.826 90.7183 388.248 89.0282 388.248 86.7042V59.2394H391.517C393.579 59.2394 395 58.1127 395 56C395 53.9577 393.579 52.831 391.517 52.831H388.248V44.8028C388.248 42.5493 386.826 40.7887 384.552 40.7887C382.349 40.7887 380.927 42.4789 380.927 44.8028V52.831H378.511C376.023 52.831 374.815 54.0282 374.815 56C374.815 57.9718 376.023 59.2394 378.511 59.2394H380.927V86.7042C380.927 89.0282 382.349 90.7183 384.552 90.7183Z" fill="white"/>
</svg>
